<?xml version="1.0" standalone="no"?>
<!DOCTYPE svg PUBLIC "-//W3C//DTD SVG 20010904//EN"
 "http://www.w3.org/TR/2001/REC-SVG-20010904/DTD/svg10.dtd">
<svg version="1.0" xmlns="http://www.w3.org/2000/svg"
 width="800.000000pt" height="600.000000pt" viewBox="0 0 800.000000 600.000000"
 preserveAspectRatio="xMidYMid meet">

<g transform="translate(0.000000,600.000000) scale(0.100000,-0.100000)"
fill="#ffffff" stroke="none">
<path d="M3830 3834 c-267 -57 -489 -223 -604 -452 -34 -68 -66 -190 -66 -254
l0 -49 -62 -26 c-116 -49 -305 -150 -404 -215 -367 -240 -361 -429 16 -488
133 -20 694 -2 634 21 -10 4 -31 8 -46 8 -45 1 -121 31 -151 59 -54 51 -23
126 87 209 234 176 705 348 1173 429 195 34 464 43 571 20 153 -32 185 -100
96 -206 l-29 -34 99 52 c201 106 354 225 406 316 57 98 33 169 -73 220 -98 47
-190 60 -427 59 -118 -1 -248 -5 -288 -10 l-73 -9 -44 60 c-107 150 -266 251
-457 290 -94 19 -269 20 -358 0z"/>
<path d="M4444 2900 c-484 -75 -1000 -299 -1030 -446 -5 -26 -1 -35 25 -56 17
-15 53 -31 81 -37 55 -12 266 -13 315 -2 30 7 29 7 -12 14 -46 8 -74 36 -66
68 20 75 305 204 573 260 126 26 317 32 367 10 40 -16 50 -44 28 -77 l-16 -25
48 25 c75 37 170 112 188 146 26 51 17 81 -35 110 -42 23 -56 25 -195 27 -107
2 -185 -3 -271 -17z"/>
<path d="M4505 2593 c-262 -34 -595 -159 -595 -223 0 -90 548 19 732 146 86
60 19 97 -137 77z"/>
</g>
</svg>
